<svg id="NORMAL" xmlns="http://www.w3.org/2000/svg" viewBox="0 0 322.04 227.57"><defs><style>.cls-1,.cls-9{fill:#e4402d;}.cls-2{fill:#32b1dd;}.cls-3,.cls-4,.cls-5,.cls-7{fill:none;stroke-linecap:round;}.cls-3,.cls-4{stroke:#172d49;}.cls-3,.cls-4,.cls-5,.cls-9{stroke-miterlimit:10;}.cls-3{stroke-width:2.83px;}.cls-4{stroke-width:2.47px;}.cls-5{stroke:#e4402c;stroke-width:6.36px;}.cls-6{fill:#1a2c4b;}.cls-7{stroke:#f6b030;stroke-linejoin:round;stroke-width:2.12px;}.cls-8{fill:#f6b030;}.cls-9{stroke:#1a2c4b;stroke-width:2.21px;}</style></defs><title>robot</title><g id="antena_izq" data-name="antena izq"><path class="cls-1" d="M168.76,38.24A13.37,13.37,0,0,1,155.37,51.6a13.05,13.05,0,0,1-2.34-.21c-2.16-.39-2.33-3.29-4-4.59s-4.63-.74-5.53-2.49a13.36,13.36,0,1,1,25.26-6.07Z" transform="translate(-0.84 -24.88)"/><polygon class="cls-2" points="131.83 37.3 144.69 19.96 151.74 24.32 139.35 41.1 131.83 37.3"/><g id="lines"><path class="cls-3" d="M143.8,30.16c.95-.26,8.08-2.12,15.44,3.82,5.6,4.51,7.28,9.86,7.49,11.35" transform="translate(-0.84 -24.88)"/><path class="cls-3" d="M142,34.25c1.62-.33,6.06-1.07,12.05,2.26a19.5,19.5,0,0,1,9.49,12.71" transform="translate(-0.84 -24.88)"/><path class="cls-4" d="M144.16,44.09a16.32,16.32,0,0,1,9.11,7" transform="translate(-0.84 -24.88)"/></g></g><path id="topcasco" class="cls-1" d="M60.19,76.93c1.27-2.05,3.12-5.22,6.64-7.38,5.14-3.16,11.68-5.49,14.54-5.8a225.45,225.45,0,0,1,80.72,2.52C178,69.7,201.17,75,225.33,92c9.82,6.91,24.38,17.42,34.47,37a91.67,91.67,0,0,1,8.94,27l-4.37,6.86-9.53-2.1a73.29,73.29,0,0,0-4.78-23c-1.29-3.33-7.24-18-26.39-34.07C198.09,82.28,170,76,142.24,69.84a206.09,206.09,0,0,0-26.71-4.09,116.27,116.27,0,0,0-19-.53c-6.9.45-16.59,1.18-27.34,6.38A61.24,61.24,0,0,0,60.19,76.93Z" transform="translate(-0.84 -24.88)"/><g id="antena_der" data-name="antena der"><path class="cls-1" d="M322.69,91.38a13.36,13.36,0,0,1-11.77,14.78,13.5,13.5,0,0,1-2.38.06c-2.2-.14-2.69-3-4.49-4.11s-4.69-.21-5.78-1.85a13.36,13.36,0,1,1,24.42-8.88Z" transform="translate(-0.84 -24.88)"/><polygon class="cls-2" points="262.09 140.28 299.51 75.68 307.01 79.22 269.99 143.22 262.09 140.28"/><g id="lines-2"><path class="cls-3" d="M297,86.16c.91-.36,7.78-3,15.77,2.06,6.07,3.85,8.35,9,8.72,10.43" transform="translate(-0.84 -24.88)"/><path class="cls-3" d="M295.7,90.42c1.54-.51,5.89-1.76,12.22.87a19.44,19.44,0,0,1,10.85,11.56" transform="translate(-0.84 -24.88)"/><path class="cls-4" d="M298.9,100a16.28,16.28,0,0,1,9.84,5.92" transform="translate(-0.84 -24.88)"/></g></g><path class="cls-5" d="M32,167.22A22.72,22.72,0,0,0,8,186.46" transform="translate(-0.84 -24.88)"/><path class="cls-6" d="M9.09,205H8.62a7.78,7.78,0,0,1-7.78-7.77c0-.15,0-.3,0-.45.22-3.87.29-7,1.08-9A10.1,10.1,0,0,1,4.37,184a6.17,6.17,0,0,1,3.77-1.85h.95a7.27,7.27,0,0,1,4.19,2.33,10.87,10.87,0,0,1,2.09,3.06c.76,1.61,1.12,5,1.45,9.05A7.77,7.77,0,0,1,9.71,205Z" transform="translate(-0.84 -24.88)"/><path class="cls-7" d="M2.67,189.41a11.56,11.56,0,0,1,5-1.81,11.71,11.71,0,0,1,6.53,1.2" transform="translate(-0.84 -24.88)"/><path id="body" class="cls-2" d="M40.38,91.9A76.64,76.64,0,0,1,56.54,79.69c13.95-7.88,26.85-9.32,35-10.14,10.77-1.08,18.62-.26,28.28.75a211.26,211.26,0,0,1,37.29,7.3c15.17,4.47,39.43,11.62,62.74,31.26,17.85,15,22.83,27.05,24.44,31.43A63.42,63.42,0,0,1,248.11,160q-2.9,36.86-5.81,73.71A138.79,138.79,0,0,1,207.84,248c-30,7.9-55.07,3.56-72.38.38-20.5-3.77-34.73-9.63-49.72-15.81C62,222.77,52.05,215.21,46.31,210.26a110.28,110.28,0,0,1-15-15.81l5.52-9.15,8.91-2.74q3.12-14.28,6.1-28.87,5.54-27,10.28-53.28Z" transform="translate(-0.84 -24.88)"/><path class="cls-6" d="M30.48,188.36,27,183l7.12-1.34a78,78,0,0,1-5.92-34.87c1.53-24.17,14.13-40.48,18.94-46.12l131.2,43.76A46.69,46.69,0,0,1,157,232.93c-12.51-2.76-25.57-6.11-39.08-10.15A555.65,555.65,0,0,1,30.48,188.36Z" transform="translate(-0.84 -24.88)"/><path class="cls-6" d="M60.19,76.93a60.31,60.31,0,0,1,13.07-7.14,64.21,64.21,0,0,1,8.33-2.59A84.18,84.18,0,0,1,103.05,65a166,166,0,0,1,25.37,2.26,283.44,283.44,0,0,1,28.11,5.82c9.85,2.43,15.55,3.84,23.32,6.57a143.11,143.11,0,0,1,25.91,11.54A123.64,123.64,0,0,1,231.64,111c4.75,4.85,10,10.3,14.72,19a72.32,72.32,0,0,1,7.82,23.59l.68,7.13a37.87,37.87,0,0,1,23,10.86,29.31,29.31,0,0,0-25-5.67,11.57,11.57,0,0,0-6.07,3.67,48.35,48.35,0,0,0-7.2,10.86,54.57,54.57,0,0,0-4.85,18.73,75,75,0,0,0,.76,21.46c.67,2.75,2.55,8.41,7.71,11.62,2.49,1.55,4.91,2,7.9,2.57a42.81,42.81,0,0,0,12.48.48c-2.95.53-5.59.85-7.83,1s-4,.25-5.32.28c-2.91.06-5.51,0-7.71-.2a21.94,21.94,0,0,1-12.57-5.71,21.54,21.54,0,0,1-5.81-9.33,81.14,81.14,0,0,1,7.72-50.67,23.15,23.15,0,0,1,16-10.77,54.54,54.54,0,0,0-10-31.14c-13.37-18-27.35-27.86-36.37-33.15C189.64,88.64,177,84.26,167.4,80.93c-9.07-3.14-16.84-5.27-22.45-6.66a227.31,227.31,0,0,0-29-4.31c-12.35-1-21.71-1.76-33.64.32A96.86,96.86,0,0,0,60.19,76.93Z" transform="translate(-0.84 -24.88)"/><path class="cls-8" d="M259.33,235.6l-6.85-.29a18.72,18.72,0,0,1-8.84-2.75,19.43,19.43,0,0,1-5.88-5.82c-3.17-4.84-3.26-9.64-3.42-18.19a72.21,72.21,0,0,1,.92-13.38,52.14,52.14,0,0,1,3.28-12.29c2.27-5.45,6-14.51,14.16-17.08a22.69,22.69,0,0,1,8.9-.61,31,31,0,0,1,9.57,2.36,19.94,19.94,0,0,1,8.5,6.07c2,2.57,4.73,7.51,1.85,27.79-2.51,17.7-3.91,26.65-11.09,31.23A20.29,20.29,0,0,1,259.33,235.6Z" transform="translate(-0.84 -24.88)"/><circle class="cls-6" cx="245.94" cy="180.21" r="2.25"/><circle class="cls-6" cx="245.13" cy="189.16" r="2.25"/><path class="cls-6" d="M268.77,225l-4.74-.23a13.94,13.94,0,0,1-6.13-1.81,13.58,13.58,0,0,1-4.11-3.77c-2.22-3.11-2.32-6.18-2.49-11.64a43.53,43.53,0,0,1,.54-8.53,31.46,31.46,0,0,1,2.19-7.83c1.53-3.45,4.08-9.21,9.69-10.8a17.42,17.42,0,0,1,6.16-.33,23.27,23.27,0,0,1,6.62,1.58,14.15,14.15,0,0,1,5.93,3.93c1.41,1.65,3.33,4.85,1.47,17.77-1.61,11.28-2.52,17-7.45,19.86A14.79,14.79,0,0,1,268.77,225Z" transform="translate(-0.84 -24.88)"/><path class="cls-1" d="M272.58,224.05l-4.09-.18a11.36,11.36,0,0,1-5.26-1.61,11.57,11.57,0,0,1-3.5-3.43c-1.9-2.85-2.32-5.67-2.06-10.69a51.43,51.43,0,0,1,.63-6.32c.72-4.4,1.2-7.34,2.89-10.74,1.42-2.83,3.38-6.78,7.37-8.07a13.36,13.36,0,0,1,5.3-.35,18.74,18.74,0,0,1,5.7,1.39c1.43.54,2.85,2.12,4.44,4.11,1.21,1.51,2.86,4.1,1.76,15.8-1,10.46-2.82,15.42-7.09,18.1A11.21,11.21,0,0,1,272.58,224.05Z" transform="translate(-0.84 -24.88)"/><ellipse class="cls-6" cx="273.37" cy="203.75" rx="6.01" ry="3.98" transform="translate(23.15 411.36) rotate(-79.69)"/><path class="cls-3" d="M261.48,186.84l7.43,7a7.11,7.11,0,0,1,10-.76,7.2,7.2,0,0,1,1.9,2.6,6.49,6.49,0,0,1,.67,2.15,26.11,26.11,0,0,1,.05,6.37,16.31,16.31,0,0,1-1.8,6.61,13.85,13.85,0,0,1-3.48,4.1,2.57,2.57,0,0,1-1.64.58h-3.13l-.62,7.71" transform="translate(-0.84 -24.88)"/><g id="BORDE_CARA" data-name="BORDE CARA"><path class="cls-8" d="M39.88,92.48l-2.79,4a2.81,2.81,0,0,0,.7,3.92l.05,0c3.08,2.06,7,4.52,11.76,7.07a150.13,150.13,0,0,0,20.87,9.27c24.53,9,42.86,14.1,42.86,14.1,25.15,7,44.89,12.51,60.38,16.76a42.77,42.77,0,0,1-28.21,80A426.92,426.92,0,0,1,58,197.78c-11-5.12-21.19-10.48-30.69-15.9l-2,2.07c-.13.13,3.33,6.55,5.6,10.36a3.48,3.48,0,0,0,1.46,1.36A525.72,525.72,0,0,0,95.6,221.93c17,5.78,33.18,10.3,48.21,13.85,24.94,6.09,50.53-6.91,60-29.72,10.11-24.35-.79-53.56-25.43-65.69-26.93-7-55.78-15.81-86-26.86C73.88,106.73,56.37,99.67,39.88,92.48Z" transform="translate(-0.84 -24.88)"/><g id="led"><path class="cls-9" d="M140,127.58,143.1,120a3,3,0,0,1,3.84-1.79h0a3,3,0,0,1,1.47,4l-3.06,7.54" transform="translate(-0.84 -24.88)"/><path class="cls-9" d="M150,130.76l3.06-7.54a3,3,0,0,1,3.81-1.81h0a3,3,0,0,1,1.48,4l-3.06,7.54" transform="translate(-0.84 -24.88)"/><path class="cls-9" d="M160.18,134.12l3-7.53a3,3,0,0,1,3.82-1.82h0a3,3,0,0,1,1.47,4l-3.05,7.54" transform="translate(-0.84 -24.88)"/></g><path class="cls-3" d="M32,195.22A448.16,448.16,0,0,0,97.15,223.6a445.93,445.93,0,0,0,50.48,14.09c24.59,3.82,48.52-9.72,57.52-32,9.69-23.94-.14-52.37-23.42-65.69-23.45-5.59-48.9-12.78-75.81-22.08-23.85-8.28-45.72-17.12-65.54-26" transform="translate(-0.84 -24.88)"/></g><g id="OJOS"><ellipse class="cls-8" cx="133.19" cy="174.82" rx="7.31" ry="3.9" transform="translate(-66.16 244.25) rotate(-78.11)"/><ellipse class="cls-8" cx="48.61" cy="145.92" rx="7.31" ry="3.9" transform="translate(-105.03 138.55) rotate(-78.11)"/></g><rect class="cls-8" x="75.8" y="172.84" width="7.75" height="16.08" rx="3.87" transform="translate(-118.56 166.12) rotate(-69.16)"/><g id="detalles"><circle class="cls-6" cx="69.44" cy="63.71" r="2.18"/><circle class="cls-6" cx="64.01" cy="71.23" r="2.18"/><path class="cls-4" d="M69.22,104.16a54,54,0,0,1,39.45-33" transform="translate(-0.84 -24.88)"/><path class="cls-4" d="M78.51,107.84a68,68,0,0,1,16-20.69.67.67,0,0,0,.06-1,.64.64,0,0,0-.27-.19l-9.44-3.47" transform="translate(-0.84 -24.88)"/><path class="cls-4" d="M223.52,114.08a70.32,70.32,0,0,0-18.63,2.69c-.12.27-.74.9-.32,1.23A61.5,61.5,0,0,1,223,140.53a2,2,0,0,0,2,1.14l17.36-1.33" transform="translate(-0.84 -24.88)"/><path class="cls-4" d="M176.76,234.14c1.54,1.53,3.15,3.23,4.76,5.13,1,1.18,1.95,2.34,2.82,3.47a1.27,1.27,0,0,0,1.56.38,58.36,58.36,0,0,0,15.93-11,1.26,1.26,0,0,0,0-1.78l-.06-.06a26.87,26.87,0,0,1-6.57-9" transform="translate(-0.84 -24.88)"/><path class="cls-4" d="M209.88,246a48.45,48.45,0,0,1-11.45-10.82" transform="translate(-0.84 -24.88)"/></g></svg>