<svg id="NORMAL" xmlns="http://www.w3.org/2000/svg" viewBox="0 0 598.07 422.6"><defs><style>.cls-1,.cls-9{fill:#e4402d;}.cls-2{fill:#32b1dd;}.cls-10,.cls-3,.cls-4,.cls-5,.cls-7{fill:none;stroke-linecap:round;}.cls-3,.cls-4{stroke:#172d49;}.cls-10,.cls-3,.cls-4,.cls-5,.cls-9{stroke-miterlimit:10;}.cls-3{stroke-width:5.25px;}.cls-4{stroke-width:4.59px;}.cls-5{stroke:#e4402c;stroke-width:11.81px;}.cls-6{fill:#1a2c4b;}.cls-10,.cls-7{stroke:#f6b030;}.cls-7{stroke-linejoin:round;stroke-width:3.94px;}.cls-8{fill:#f6b030;}.cls-9{stroke:#1a2c4b;stroke-width:4.11px;}.cls-10{stroke-width:9px;}</style></defs><title>robot-not-found</title><g id="antena_izq" data-name="antena izq"><path class="cls-1" d="M319.53,74.41a24.84,24.84,0,0,1-29.22,24.42c-4-.72-4.33-6.11-7.43-8.53-2.86-2.22-8.6-1.37-10.26-4.62a24.81,24.81,0,1,1,46.91-11.27Z" transform="translate(-7.68 -49.61)"/><polygon class="cls-2" points="244.82 69.24 268.7 37.05 281.79 45.15 258.79 76.31 244.82 69.24"/><g id="lines"><path class="cls-3" d="M273.18,59.39c1.75-.48,15-3.92,28.67,7.1,10.4,8.38,13.52,18.31,13.9,21.08" transform="translate(-7.68 -49.61)"/><path class="cls-3" d="M269.91,67c3-.61,11.25-2,22.38,4.19a36.14,36.14,0,0,1,17.61,23.6" transform="translate(-7.68 -49.61)"/><path class="cls-4" d="M273.84,85.26a30.39,30.39,0,0,1,16.92,12.95" transform="translate(-7.68 -49.61)"/></g></g><path id="topcasco" class="cls-1" d="M117.9,146.26c2.37-3.81,5.79-9.69,12.33-13.71,9.55-5.86,21.7-10.19,27-10.77,65.07-9.54,117.45-2.36,149.92,4.67,29.47,6.38,72.57,16.15,117.44,47.75,18.23,12.84,45.27,32.36,64,68.63a170.12,170.12,0,0,1,16.62,50.23l-8.13,12.73-17.69-3.89a136.25,136.25,0,0,0-8.88-42.67c-2.39-6.19-13.44-33.47-49-63.27C374,156.2,321.74,144.55,270.27,133.08a380.79,380.79,0,0,0-49.59-7.58c-12.84-1.09-22.33-1.85-35.39-1-12.81.85-30.81,2.2-50.76,11.85A113.18,113.18,0,0,0,117.9,146.26Z" transform="translate(-7.68 -49.61)"/><g id="antena_der" data-name="antena der"><path class="cls-1" d="M605.39,173.09a24.81,24.81,0,0,1-21.85,27.45,25.21,25.21,0,0,1-4.42.11c-4.09-.26-5-5.58-8.35-7.63-3.09-1.89-8.7-.39-10.72-3.44a24.82,24.82,0,0,1,17.89-38.33A24.8,24.8,0,0,1,605.39,173.09Z" transform="translate(-7.68 -49.61)"/><polygon class="cls-2" points="486.72 260.5 556.22 140.52 570.14 147.09 501.4 265.95 486.72 260.5"/><g id="lines-2" data-name="lines"><path class="cls-3" d="M557.64,163.4c1.69-.67,14.45-5.59,29.29,3.82,11.28,7.15,15.5,16.66,16.19,19.37" transform="translate(-7.68 -49.61)"/><path class="cls-3" d="M555.26,171.3c2.86-.94,10.94-3.27,22.71,1.63a36.16,36.16,0,0,1,20.15,21.46" transform="translate(-7.68 -49.61)"/><path class="cls-4" d="M561.22,189a30.26,30.26,0,0,1,18.27,11" transform="translate(-7.68 -49.61)"/></g></g><path class="cls-5" d="M65.55,313.93A42.19,42.19,0,0,0,21,349.66" transform="translate(-7.68 -49.61)"/><path class="cls-6" d="M23,384.15h-.86A14.45,14.45,0,0,1,7.7,368.88c.42-7.18.54-13,2-16.72a18.68,18.68,0,0,1,4.54-7c3.55-3.34,6.86-3.45,7-3.45H23c.45,0,4.08.56,7.79,4.33a20.47,20.47,0,0,1,3.88,5.68c1.4,3,2.07,9.26,2.69,16.81A14.44,14.44,0,0,1,23,384.15Z" transform="translate(-7.68 -49.61)"/><path class="cls-7" d="M11.08,355.14a21.49,21.49,0,0,1,9.37-3.36A21.86,21.86,0,0,1,32.57,354" transform="translate(-7.68 -49.61)"/><path id="body" class="cls-2" d="M81.12,174.05a142.21,142.21,0,0,1,30-22.66c25.91-14.64,49.87-17.31,65-18.84,20-2,34.59-.49,52.53,1.39a392.71,392.71,0,0,1,69.24,13.56c28.17,8.3,73.23,21.57,116.51,58.05,33.15,27.94,42.41,50.23,45.4,58.37a118,118,0,0,1,7.09,36.57q-5.39,68.44-10.79,136.89a258.11,258.11,0,0,1-64,26.53c-55.72,14.67-102.27,6.62-134.42.71-38.07-7-64.49-17.88-92.33-29.36-44.07-18.17-62.57-32.21-73.22-41.39a205.77,205.77,0,0,1-27.94-29.36l10.25-17L91,342.43q5.78-26.54,11.32-53.62,10.27-50.16,19.1-98.95Z" transform="translate(-7.68 -49.61)"/><path class="cls-6" d="M62.72,353.19l-6.54-9.9,13.22-2.48a144.88,144.88,0,0,1-11-64.76c2.85-44.89,26.25-75.18,35.18-85.66l243.64,81.27c36.51,18.45,55.37,60,45.28,99.22-9.85,38.27-45,65.31-84.9,65.09-23.24-5.14-47.49-11.35-72.58-18.85A1033.24,1033.24,0,0,1,62.72,353.19Z" transform="translate(-7.68 -49.61)"/><path class="cls-6" d="M117.9,146.26A112,112,0,0,1,142.18,133a120.45,120.45,0,0,1,15.46-4.82c10.79-2.63,22.7-4.14,39.86-4,19.51.12,34.19,2.25,47.11,4.19,20.78,3.1,36.24,6.88,52.2,10.81,18.3,4.52,28.89,7.14,43.31,12.21,12.68,4.47,28.83,10.25,48.12,21.43a229.12,229.12,0,0,1,48.07,36.75c8.81,9,18.62,19.13,27.33,35.32a134.61,134.61,0,0,1,14.53,43.8l1.25,13.25a70.32,70.32,0,0,1,42.8,20.16,54.48,54.48,0,0,0-46.46-10.52,21.48,21.48,0,0,0-11.27,6.81,89.56,89.56,0,0,0-13.37,20.16c-7.19,14.92-8.32,28.67-9,34.79a139.24,139.24,0,0,0,1.4,39.85c1.26,5.12,4.74,15.62,14.32,21.58,4.63,2.88,9.12,3.73,14.68,4.77a78.66,78.66,0,0,0,23.17.89c-5.48,1-10.38,1.59-14.53,1.95s-7.48.48-9.88.53c-5.42.11-10.25-.08-14.32-.38a40.65,40.65,0,0,1-23.35-10.59,40.14,40.14,0,0,1-10.79-17.33,150.77,150.77,0,0,1,14.33-94.1,43,43,0,0,1,29.71-20,101.45,101.45,0,0,0-18.57-57.84c-24.84-33.38-50.8-51.73-67.56-61.55C358.31,168,334.86,159.86,317,153.69c-16.85-5.83-31.27-9.79-41.69-12.38a424.26,424.26,0,0,0-53.91-8c-22.94-1.92-40.31-3.26-62.47.6A178.91,178.91,0,0,0,117.9,146.26Z" transform="translate(-7.68 -49.61)"/><path class="cls-8" d="M487.73,440.92,475,440.39a34.77,34.77,0,0,1-16.41-5.11,36.16,36.16,0,0,1-10.92-10.81c-5.89-9-6.06-17.9-6.35-33.78a134.77,134.77,0,0,1,1.7-24.86,97.4,97.4,0,0,1,6.1-22.82c4.21-10.11,11.22-26.94,26.3-31.71,6.21-2,12.45-1.47,16.53-1.14a57.2,57.2,0,0,1,17.76,4.39,36.85,36.85,0,0,1,15.78,11.27c3.75,4.77,8.8,13.95,3.45,51.6-4.66,32.88-7.27,49.49-20.6,58C501.07,440.08,493.23,440.94,487.73,440.92Z" transform="translate(-7.68 -49.61)"/><circle class="cls-6" cx="456.73" cy="334.65" r="4.18"/><circle class="cls-6" cx="455.22" cy="351.27" r="4.18"/><path class="cls-6" d="M505.26,421.18l-8.81-.42a26,26,0,0,1-11.38-3.37,25.26,25.26,0,0,1-7.63-7c-4.13-5.78-4.31-11.47-4.62-21.61a80.29,80.29,0,0,1,1-15.85,58,58,0,0,1,4.06-14.53c2.85-6.42,7.58-17.11,18-20.06,4.28-1.21,8.61-.84,11.43-.61a43.1,43.1,0,0,1,12.31,2.92,26.33,26.33,0,0,1,11,7.31c2.63,3.06,6.18,9,2.74,33-3,20.95-4.69,31.53-13.85,36.88A27.42,27.42,0,0,1,505.26,421.18Z" transform="translate(-7.68 -49.61)"/><path class="cls-1" d="M512.33,419.47l-7.59-.33a21,21,0,0,1-9.77-3,21.6,21.6,0,0,1-6.51-6.36c-3.52-5.3-4.3-10.54-3.82-19.86a95.15,95.15,0,0,1,1.18-11.73c1.33-8.17,2.22-13.63,5.36-19.94,2.63-5.27,6.28-12.6,13.69-15a25.1,25.1,0,0,1,9.84-.65,34.41,34.41,0,0,1,10.58,2.59c2.66,1,5.3,3.93,8.25,7.63,2.24,2.8,5.31,7.61,3.26,29.35-1.82,19.42-5.23,28.62-13.16,33.61C519.31,418.53,515.6,419.48,512.33,419.47Z" transform="translate(-7.68 -49.61)"/><ellipse class="cls-6" cx="513.77" cy="381.74" rx="11.16" ry="7.39" transform="translate(38.59 769.31) rotate(-79.69)"/><path class="cls-3" d="M491.71,350.36l13.8,13a13.22,13.22,0,0,1,22.18,3.42,12.18,12.18,0,0,1,1.24,4,48.33,48.33,0,0,1,.1,11.83c-.46,4-.92,7.9-3.35,12.28a25.92,25.92,0,0,1-6.45,7.61,4.87,4.87,0,0,1-3.06,1.07h-5.8l-1.15,14.33" transform="translate(-7.68 -49.61)"/><g id="BORDE_CARA" data-name="BORDE CARA"><path class="cls-8" d="M80.19,175.13,75,182.51a5.22,5.22,0,0,0,1.39,7.33c5.73,3.82,13.08,8.4,21.84,13.14A280.42,280.42,0,0,0,137,220.19c45.55,16.63,79.59,26.18,79.59,26.18,46.7,13.09,83.36,23.23,112.13,31.12,35,18,51.81,59.05,39.62,95.87-12.54,37.86-52.28,60.87-92,52.7A793.11,793.11,0,0,1,113.8,370.69c-20.36-9.52-39.35-19.46-57-29.53L53.09,345c-.24.24,6.18,12.17,10.4,19.25a6.5,6.5,0,0,0,2.71,2.51,972.34,972.34,0,0,0,117.47,48.77c31.59,10.74,61.61,19.13,89.52,25.72,46.32,11.31,93.85-12.82,111.43-55.18,18.77-45.22-1.46-99.47-47.23-122-50-13-103.59-29.36-159.71-49.89C143.32,201.6,110.81,188.48,80.19,175.13Z" transform="translate(-7.68 -49.61)"/><g id="led"><path class="cls-9" d="M266.2,240.31l5.67-14A5.58,5.58,0,0,1,279,223h0a5.57,5.57,0,0,1,2.73,7.37l-5.67,14" transform="translate(-7.68 -49.61)"/><path class="cls-9" d="M284.59,246.22l5.68-14a5.57,5.57,0,0,1,7.09-3.37h0a5.57,5.57,0,0,1,2.74,7.37l-5.68,14" transform="translate(-7.68 -49.61)"/><path class="cls-9" d="M303.59,252.47l5.67-14a5.58,5.58,0,0,1,7.1-3.37h0a5.57,5.57,0,0,1,2.73,7.37l-5.67,14" transform="translate(-7.68 -49.61)"/></g><path class="cls-3" d="M65.55,365.93a829,829,0,0,0,121,52.7,827.26,827.26,0,0,0,93.74,26.18c45.67,7.08,90.1-18.05,106.82-59.43,18-44.47-.26-97.27-43.5-122-43.54-10.38-90.8-23.73-140.79-41C158.54,207,117.93,190.58,81.12,174.05" transform="translate(-7.68 -49.61)"/></g><rect class="cls-8" x="139.17" y="332.11" width="29.87" height="14.39" rx="7.19" transform="translate(123.1 -82.23) rotate(20.84)"/><g id="detalles"><circle class="cls-6" cx="128.95" cy="118.3" r="4.05"/><circle class="cls-6" cx="118.87" cy="132.27" r="4.05"/><path class="cls-4" d="M134.67,196.83a100.22,100.22,0,0,1,73.26-61.36" transform="translate(-7.68 -49.61)"/><path class="cls-4" d="M151.93,203.65a126.35,126.35,0,0,1,29.73-38.42,1.25,1.25,0,0,0-.4-2.11l-17.53-6.45" transform="translate(-7.68 -49.61)"/><path class="cls-4" d="M421.23,215.24a130.94,130.94,0,0,0-34.61,5c-.22.5-1.37,1.68-.58,2.28a114.18,114.18,0,0,1,34.12,41.84,3.73,3.73,0,0,0,3.66,2.12l32.25-2.46" transform="translate(-7.68 -49.61)"/><path class="cls-4" d="M334.38,438.21c2.87,2.84,5.85,6,8.85,9.52,1.88,2.19,3.62,4.35,5.23,6.46a2.38,2.38,0,0,0,2.89.7,108.77,108.77,0,0,0,29.59-20.46,2.35,2.35,0,0,0-.06-3.43,49,49,0,0,1-5.94-6.35,50,50,0,0,1-6.25-10.36" transform="translate(-7.68 -49.61)"/><path class="cls-4" d="M395.89,460.2a90.71,90.71,0,0,1-21.27-20.09" transform="translate(-7.68 -49.61)"/></g><line class="cls-10" x1="79.92" y1="206.85" x2="95.99" y2="241.01"/><polyline class="cls-10" points="70.12 229.72 88.74 222.82 106.84 217.61"/><line class="cls-10" x1="237.23" y1="261.35" x2="253.3" y2="295.51"/><polyline class="cls-10" points="227.43 284.22 246.04 277.32 264.14 272.12"/></svg>