<?xml version="1.0" encoding="utf-8"?>
<!-- Generator: Adobe Illustrator 24.1.1, SVG Export Plug-In . SVG Version: 6.00 Build 0)  -->
<svg version="1.1" id="NORMAL" xmlns="http://www.w3.org/2000/svg" xmlns:xlink="http://www.w3.org/1999/xlink" x="0px" y="0px"
	 viewBox="0 0 350 252.9" style="enable-background:new 0 0 350 252.9;" xml:space="preserve">
<style type="text/css">
	.st0{fill:#E4402D;}
	.st1{fill:#32B1DD;}
	.st2{fill:none;stroke:#172D49;stroke-width:2.83;stroke-linecap:round;stroke-miterlimit:10;}
	.st3{fill:none;stroke:#172D49;stroke-width:2.47;stroke-linecap:round;stroke-miterlimit:10;}
	.st4{fill:none;stroke:#E4402C;stroke-width:6.36;stroke-linecap:round;stroke-miterlimit:10;}
	.st5{fill:#1A2C4B;}
	.st6{fill:none;stroke:#F6B030;stroke-width:2.12;stroke-linecap:round;stroke-linejoin:round;}
	.st7{fill:#F6B030;}
	.st8{fill:#E4402D;stroke:#1A2C4B;stroke-width:2.21;stroke-miterlimit:10;}
	.st9{fill:none;}
</style>
<g id="antena_izq">
	<path class="st0" d="M167.9,37c0,7.4-6,13.4-13.4,13.4c0,0,0,0,0,0c-0.8,0-1.6-0.1-2.3-0.2c-2.2-0.4-2.3-3.3-4-4.6
		s-4.6-0.7-5.5-2.5c-3.4-6.6-0.7-14.6,5.8-18c6.6-3.4,14.6-0.7,18,5.8C167.4,32.8,167.9,34.8,167.9,37z"/>
	<polygon class="st1" points="131.8,60.9 144.7,43.6 151.7,47.9 139.4,64.7 	"/>
	<g id="lines">
		<path class="st2" d="M143,28.9c0.9-0.3,8.1-2.1,15.4,3.8c5.6,4.5,7.3,9.9,7.5,11.4"/>
		<path class="st2" d="M141.2,33c1.6-0.3,6.1-1.1,12.1,2.3c4.8,2.7,8.3,7.3,9.5,12.7"/>
		<path class="st3" d="M143.3,42.8c3.8,1.2,7,3.6,9.1,7"/>
	</g>
</g>
<path id="topcasco" class="st0" d="M59.3,75.6c1.3-2.1,3.1-5.2,6.6-7.4c5.1-3.2,11.7-5.5,14.5-5.8c26.8-4,54.2-3.2,80.7,2.5
	c15.9,3.4,39.1,8.7,63.2,25.7c9.8,6.9,24.4,17.4,34.5,37c4.4,8.5,7.4,17.6,8.9,27l-4.4,6.9l-9.5-2.1c-0.3-7.9-2-15.6-4.8-23
	c-1.3-3.3-7.2-18-26.4-34.1c-25.6-21.4-53.7-27.7-81.4-33.8c-8.8-1.9-17.7-3.3-26.7-4.1c-6.3-0.7-12.7-0.9-19-0.5
	c-6.9,0.4-16.6,1.2-27.3,6.4C65.2,71.8,62.2,73.6,59.3,75.6z"/>
<g id="antena_der">
	<path class="st0" d="M321.9,90.1c0.8,7.3-4.4,13.9-11.8,14.8c0,0,0,0,0,0c-0.8,0.1-1.6,0.1-2.4,0.1c-2.2-0.1-2.7-3-4.5-4.1
		s-4.7-0.2-5.8-1.8c-4.1-6.2-2.4-14.4,3.8-18.5c6.2-4.1,14.4-2.4,18.5,3.8C320.9,86,321.6,88,321.9,90.1L321.9,90.1z"/>
	<polygon class="st1" points="262.1,163.9 299.5,99.3 307,102.8 270,166.8 	"/>
	<g id="lines-2">
		<path class="st2" d="M296.2,84.9c0.9-0.4,7.8-3,15.8,2.1c6.1,3.8,8.4,9,8.7,10.4"/>
		<path class="st2" d="M294.9,89.1c1.5-0.5,5.9-1.8,12.2,0.9c5.1,2.1,9,6.3,10.9,11.6"/>
		<path class="st3" d="M298.1,98.7c3.9,0.7,7.4,2.8,9.8,5.9"/>
	</g>
</g>
<path class="st4" d="M31.2,165.9c-11.8-0.8-22.2,7.6-24,19.2"/>
<path class="st5" d="M8.3,203.7H7.8c-4.3,0-7.8-3.5-7.8-7.8c0-0.1,0-0.3,0-0.4c0.2-3.9,0.3-7,1.1-9c0.5-1.4,1.4-2.7,2.5-3.8
	c1-1,2.3-1.7,3.8-1.9h0.9c1.6,0.3,3.1,1.1,4.2,2.3c0.9,0.9,1.6,1.9,2.1,3.1c0.8,1.6,1.1,5,1.5,9.1c0.4,4.3-2.8,8-7.1,8.4
	c0,0,0,0,0,0H8.3z"/>
<path class="st6" d="M1.8,188.1c1.5-1,3.2-1.6,5-1.8c2.2-0.2,4.5,0.2,6.5,1.2"/>
<path id="body" class="st1" d="M39.5,90.6c4.8-4.8,10.3-8.9,16.2-12.2c14-7.9,26.9-9.3,35-10.1c10.8-1.1,18.6-0.3,28.3,0.8
	c12.6,1.3,25.1,3.8,37.3,7.3c15.2,4.5,39.4,11.6,62.7,31.3c17.9,15,22.8,27,24.4,31.4c2.3,6.3,3.6,13,3.8,19.7
	c-1.9,24.6-3.9,49.1-5.8,73.7c-10.8,6.3-22.4,11.1-34.5,14.3c-30,7.9-55.1,3.6-72.4,0.4c-20.5-3.8-34.7-9.6-49.7-15.8
	c-23.7-9.8-33.7-17.4-39.4-22.3c-5.5-4.8-10.5-10.1-15-15.8L36,184l8.9-2.7c2.1-9.5,4.1-19.1,6.1-28.9c3.7-18,7.1-35.8,10.3-53.3
	L39.5,90.6z"/>
<path class="st5" d="M29.6,187.1l-3.5-5.4l7.1-1.3c-4.6-11-6.6-22.9-5.9-34.9c1.5-24.2,14.1-40.5,18.9-46.1l131.2,43.8
	c23.1,11.5,32.5,39.5,21,62.6c-8,16.1-24.4,26.1-42.4,25.9c-12.5-2.8-25.6-6.1-39.1-10.1C87,212.5,57.8,201,29.6,187.1z"/>
<path class="st5" d="M59.3,75.6c4-2.9,8.4-5.3,13.1-7.1c2.7-1.1,5.5-1.9,8.3-2.6c7-1.7,14.2-2.4,21.5-2.2c8.5,0.1,17,0.9,25.4,2.3
	c9.5,1.5,18.8,3.4,28.1,5.8c9.9,2.4,15.6,3.8,23.3,6.6c9,3,17.7,6.8,25.9,11.5c9.5,5.4,18.2,12.1,25.9,19.8c4.8,4.8,10,10.3,14.7,19
	c3.9,7.4,6.6,15.3,7.8,23.6l0.7,7.1c8.7,0.9,16.8,4.7,23,10.9c-7-5.6-16.2-7.7-25-5.7c-2.4,0.6-4.5,1.8-6.1,3.7
	c-2.9,3.3-5.3,6.9-7.2,10.9c-2.7,5.9-4.4,12.2-4.9,18.7c-0.8,7.2-0.5,14.4,0.8,21.5c0.7,2.8,2.6,8.4,7.7,11.6c2.5,1.6,4.9,2,7.9,2.6
	c4.1,0.8,8.3,0.9,12.5,0.5c-3,0.5-5.6,0.9-7.8,1s-4,0.3-5.3,0.3c-2.9,0.1-5.5,0-7.7-0.2c-4.7-0.5-9.1-2.5-12.6-5.7
	c-2.7-2.6-4.7-5.8-5.8-9.3c-3-17.3-0.3-35.1,7.7-50.7c3.5-5.7,9.4-9.7,16-10.8c-0.1-11.2-3.6-22-10-31.1
	c-13.4-18-27.4-27.9-36.4-33.2c-12.1-7-24.7-11.3-34.3-14.7c-9.1-3.1-16.8-5.3-22.4-6.7c-9.6-2.1-19.3-3.5-29-4.3
	c-12.3-1-21.7-1.8-33.6,0.3C73.9,70.3,66.4,72.6,59.3,75.6z"/>
<path class="st7" d="M258.5,234.3l-6.9-0.3c-3.1-0.2-6.2-1.1-8.8-2.8c-2.4-1.5-4.4-3.5-5.9-5.8c-3.2-4.8-3.3-9.6-3.4-18.2
	c-0.1-4.5,0.2-9,0.9-13.4c0.6-4.2,1.7-8.3,3.3-12.3c2.3-5.4,6-14.5,14.2-17.1c2.9-0.8,5.9-1,8.9-0.6c3.3,0.3,6.5,1.1,9.6,2.4
	c3.3,1.2,6.3,3.3,8.5,6.1c2,2.6,4.7,7.5,1.9,27.8c-2.5,17.7-3.9,26.6-11.1,31.2C266.3,233.4,262.4,234.4,258.5,234.3z"/>
<circle class="st5" cx="245.9" cy="203.8" r="2.3"/>
<circle class="st5" cx="245.1" cy="212.8" r="2.3"/>
<path class="st5" d="M267.9,223.7l-4.7-0.2c-2.2-0.1-4.3-0.7-6.1-1.8c-1.6-1-3-2.2-4.1-3.8c-2.2-3.1-2.3-6.2-2.5-11.6
	c-0.1-2.9,0.1-5.7,0.5-8.5c0.4-2.7,1.1-5.3,2.2-7.8c1.5-3.4,4.1-9.2,9.7-10.8c2-0.5,4.1-0.6,6.2-0.3c2.3,0.2,4.5,0.7,6.6,1.6
	c2.3,0.8,4.3,2.1,5.9,3.9c1.4,1.6,3.3,4.9,1.5,17.8c-1.6,11.3-2.5,17-7.5,19.9C273.3,223.2,270.6,223.8,267.9,223.7z"/>
<path class="st0" d="M271.7,222.8l-4.1-0.2c-1.9-0.1-3.7-0.7-5.3-1.6c-1.4-0.9-2.6-2-3.5-3.4c-1.9-2.9-2.3-5.7-2.1-10.7
	c0.1-2.1,0.3-4.2,0.6-6.3c0.7-4.4,1.2-7.3,2.9-10.7c1.4-2.8,3.4-6.8,7.4-8.1c1.7-0.5,3.5-0.6,5.3-0.4c2,0.2,3.9,0.6,5.7,1.4
	c1.4,0.5,2.9,2.1,4.4,4.1c1.2,1.5,2.9,4.1,1.8,15.8c-1,10.5-2.8,15.4-7.1,18.1C276,222,273.9,222.7,271.7,222.8z"/>
<ellipse transform="matrix(0.179 -0.9839 0.9839 0.179 24.5651 434.3635)" class="st5" cx="272.5" cy="202.5" rx="6" ry="4"/>
<path class="st2" d="M260.6,185.6l7.4,7c2.6-3,7-3.3,10-0.8c0.8,0.7,1.5,1.6,1.9,2.6c0.3,0.7,0.6,1.4,0.7,2.1c0.3,2.1,0.3,4.3,0,6.4
	c-0.1,2.3-0.7,4.6-1.8,6.6c-0.9,1.6-2.1,3-3.5,4.1c-0.5,0.4-1,0.6-1.6,0.6h-3.1l-0.6,7.7"/>
<g id="BORDE_CARA">
	<path class="st7" d="M39,91.2l-2.8,4c-0.9,1.3-0.6,3,0.7,3.9c0,0,0,0,0,0h0c3.1,2.1,7,4.5,11.8,7.1c6.7,3.6,13.7,6.7,20.9,9.3
		c24.5,9,42.9,14.1,42.9,14.1c25.1,7,44.9,12.5,60.4,16.8c21.1,10.7,29.5,36.4,18.9,57.5c-8.8,17.3-28.1,26.6-47.1,22.5
		c-30.2-6.7-59.5-16.7-87.5-29.8c-11-5.1-21.2-10.5-30.7-15.9l-2,2.1c-0.1,0.1,3.3,6.6,5.6,10.4c0.3,0.6,0.9,1.1,1.5,1.4
		c20.5,10.1,41.6,18.9,63.2,26.3c17,5.8,33.2,10.3,48.2,13.9c24.9,6.1,50.5-6.9,60-29.7c10.1-24.4-0.8-53.6-25.4-65.7
		c-26.9-7-55.8-15.8-86-26.9C73,105.4,55.5,98.4,39,91.2z"/>
	<g id="led">
		<path class="st8" d="M139.2,126.3l3.1-7.6c0.6-1.6,2.3-2.4,3.8-1.8l0,0c1.5,0.7,2.2,2.5,1.5,4c0,0,0,0,0,0l-3.1,7.5"/>
		<path class="st8" d="M149.2,129.5l3.1-7.5c0.6-1.5,2.3-2.4,3.8-1.8l0,0c1.5,0.7,2.2,2.5,1.5,4c0,0,0,0,0,0l-3.1,7.5"/>
		<path class="st8" d="M159.3,132.8l3-7.5c0.6-1.6,2.3-2.4,3.8-1.8l0,0c1.5,0.7,2.2,2.5,1.5,4c0,0,0,0,0,0l-3.1,7.5"/>
	</g>
	<path class="st2" d="M31.2,193.9c20.9,11.2,42.7,20.7,65.2,28.4c16.5,5.7,33.4,10.4,50.5,14.1c24.6,3.8,48.5-9.7,57.5-32
		c9.7-23.9-0.1-52.4-23.4-65.7c-23.4-5.6-48.9-12.8-75.8-22.1c-23.8-8.3-45.7-17.1-65.5-26"/>
</g>
<g id="OJOS">
	<ellipse transform="matrix(0.206 -0.9785 0.9785 0.206 -64.7246 267.2881)" class="st7" cx="132.4" cy="173.5" rx="7.3" ry="3.9"/>
	<ellipse transform="matrix(0.206 -0.9785 0.9785 0.206 -103.6061 161.5895)" class="st7" cx="47.8" cy="144.6" rx="7.3" ry="3.9"/>
</g>
<path class="st7" d="M71.3,176.7L71.3,176.7c0.8-2,3-3,5-2.2l7.8,3c2,0.8,3,3,2.2,5l0,0c-0.8,2-3,3-5,2.2l-7.8-3
	C71.6,181,70.6,178.7,71.3,176.7z"/>
<g id="detalles">
	<circle class="st5" cx="69.4" cy="87.3" r="2.2"/>
	<circle class="st5" cx="64" cy="94.8" r="2.2"/>
	<path class="st3" d="M68.4,102.9c6.7-17,21.6-29.4,39.4-33"/>
	<path class="st3" d="M77.7,106.6c3.9-7.9,9.4-14.9,16-20.7c0.3-0.2,0.3-0.6,0.1-0.9c0,0,0,0-0.1-0.1c-0.1-0.1-0.2-0.2-0.3-0.2
		L84,81.2"/>
	<path class="st3" d="M222.7,112.8c-6.3,0.1-12.6,1-18.6,2.7c-0.1,0.3-0.7,0.9-0.3,1.2c7.9,5.9,14.2,13.7,18.4,22.5
		c0.4,0.8,1.2,1.2,2,1.1l17.4-1.3"/>
	<path class="st3" d="M175.9,232.9c1.5,1.5,3.1,3.2,4.8,5.1c1,1.2,1.9,2.3,2.8,3.5c0.4,0.5,1,0.6,1.6,0.4c5.9-2.8,11.3-6.5,15.9-11
		c0.5-0.5,0.5-1.3,0-1.8l-0.1-0.1c-2.8-2.5-5-5.6-6.6-9"/>
	<path class="st3" d="M209,244.7c-4.4-3-8.2-6.6-11.4-10.8"/>
</g>
<rect x="0" class="st9" width="350" height="252.9"/>
</svg>
