<?xml version="1.0" encoding="utf-8"?>
<!-- Generator: Adobe Illustrator 24.0.2, SVG Export Plug-In . SVG Version: 6.00 Build 0)  -->
<svg version="1.1" id="NORMAL" xmlns="http://www.w3.org/2000/svg" xmlns:xlink="http://www.w3.org/1999/xlink" x="0px" y="0px"
	 viewBox="0 0 350 253" style="enable-background:new 0 0 350 253;" xml:space="preserve">
<style type="text/css">
	.st0{fill:#E4402D;}
	.st1{fill:#32B1DD;}
	.st2{fill:none;stroke:#172D49;stroke-width:2.8203;stroke-linecap:round;stroke-miterlimit:10;}
	.st3{fill:none;stroke:#172D49;stroke-width:2.4658;stroke-linecap:round;stroke-miterlimit:10;}
	.st4{fill:none;stroke:#E4402C;stroke-width:6.3444;stroke-linecap:round;stroke-miterlimit:10;}
	.st5{fill:#1A2C4B;}
	.st6{fill:none;stroke:#F6B030;stroke-width:2.1166;stroke-linecap:round;stroke-linejoin:round;}
	.st7{fill:#F6B030;}
	.st8{fill:#E4402D;stroke:#1A2C4B;stroke-width:2.2079;stroke-miterlimit:10;}
	.st9{fill:none;stroke:#F6B030;stroke-width:4.8348;stroke-linecap:round;stroke-miterlimit:10;}
</style>
<title>robot-not-found</title>
<g id="antena_izq">
	<path class="st0" d="M167.5,39.4c0,7.4-6,13.3-13.4,13.3c-0.8,0-1.6-0.1-2.3-0.2c-2.1-0.4-2.3-3.3-4-4.6c-1.5-1.2-4.6-0.7-5.5-2.5
		c-3.3-6.6-0.7-14.6,5.8-17.9c6.6-3.3,14.6-0.7,17.9,5.8C167,35.2,167.5,37.3,167.5,39.4z"/>
	<polygon class="st1" points="131.5,63.3 144.3,46 151.4,50.4 139,67.1 	"/>
	<g id="lines">
		<path class="st2" d="M142.6,31.4c0.9-0.3,8.1-2.1,15.4,3.8c5.6,4.5,7.3,9.8,7.5,11.3"/>
		<path class="st2" d="M140.9,35.4c1.6-0.3,6-1.1,12,2.3c4.8,2.7,8.2,7.3,9.5,12.7"/>
		<path class="st3" d="M143,45.2c3.8,1.1,7,3.6,9.1,7"/>
	</g>
</g>
<path id="topcasco" class="st0" d="M59.2,78c1.3-2,3.1-5.2,6.6-7.4c5.1-3.1,11.7-5.5,14.5-5.8c35-5.1,63.1-1.3,80.5,2.5
	c15.8,3.4,39,8.7,63.1,25.7c9.8,6.9,24.3,17.4,34.4,36.9c4.4,8.5,7.4,17.6,8.9,27l-4.4,6.8l-9.5-2.1c-0.3-7.8-2-15.6-4.8-22.9
	c-1.3-3.3-7.2-18-26.3-34c-25.5-21.4-53.6-27.6-81.2-33.8c-8.8-1.9-17.7-3.3-26.6-4.1c-6.9-0.6-12-1-19-0.5
	c-6.9,0.5-16.6,1.2-27.3,6.4C65,74.2,62,76,59.2,78z"/>
<g id="antena_der">
	<path class="st0" d="M321.1,92.4c0.8,7.3-4.4,13.9-11.7,14.7c-0.8,0.1-1.6,0.1-2.4,0.1c-2.2-0.1-2.7-3-4.5-4.1
		c-1.7-1-4.7-0.2-5.8-1.8c-4.1-6.1-2.4-14.4,3.8-18.5c1.7-1.2,3.7-1.9,5.8-2.1C313.7,79.9,320.3,85.1,321.1,92.4
		C321.1,92.4,321.1,92.4,321.1,92.4z"/>
	<polygon class="st1" points="261.5,166 298.8,101.6 306.3,105.1 269.4,169 	"/>
	<g id="lines-2">
		<path class="st2" d="M295.4,87.2c0.9-0.4,7.8-3,15.7,2.1c6.1,3.8,8.3,8.9,8.7,10.4"/>
		<path class="st2" d="M294.2,91.5c1.5-0.5,5.9-1.8,12.2,0.9c5.1,2.1,9,6.3,10.8,11.5"/>
		<path class="st3" d="M297.4,101c3.9,0.7,7.4,2.8,9.8,5.9"/>
	</g>
</g>
<path class="st4" d="M31.1,168.1c-11.8-0.8-22.2,7.5-23.9,19.2"/>
<path class="st5" d="M8.2,205.8H7.8c-4.3,0-7.8-3.5-7.8-7.8c0-0.1,0-0.3,0-0.4c0.2-3.9,0.3-7,1.1-9c0.5-1.4,1.4-2.7,2.4-3.8
	c1.9-1.8,3.7-1.9,3.8-1.9h0.9c0.2,0,2.2,0.3,4.2,2.3c0.9,0.9,1.6,1.9,2.1,3.1c0.8,1.6,1.1,5,1.4,9c0.4,4.3-2.8,8-7.1,8.4
	C8.6,205.8,8.4,205.8,8.2,205.8z"/>
<path class="st6" d="M1.8,190.2c1.5-1,3.2-1.6,5-1.8c2.2-0.2,4.5,0.2,6.5,1.2"/>
<path id="body" class="st1" d="M39.5,92.9c4.8-4.8,10.2-8.8,16.1-12.2c13.9-7.9,26.8-9.3,34.9-10.1c10.7-1.1,18.6-0.3,28.2,0.7
	c12.6,1.3,25,3.7,37.2,7.3c15.1,4.5,39.3,11.6,62.6,31.2c17.8,15,22.8,27,24.4,31.4c2.3,6.3,3.6,12.9,3.8,19.6
	c-1.9,24.5-3.9,49-5.8,73.5c-10.8,6.3-22.3,11.1-34.4,14.3c-29.9,7.9-54.9,3.6-72.2,0.4c-20.5-3.8-34.6-9.6-49.6-15.8
	C61,223.5,51.1,216,45.4,211c-5.5-4.8-10.5-10-15-15.8l5.5-9.1l8.9-2.7c2.1-9.5,4.1-19.1,6.1-28.8c3.7-18,7.1-35.7,10.3-53.2
	L39.5,92.9z"/>
<path class="st5" d="M29.6,189.2l-3.5-5.3l7.1-1.3c-4.6-11-6.6-22.9-5.9-34.8c1.5-24.1,14.1-40.4,18.9-46L177,145.4
	c19.6,9.9,29.7,32.2,24.3,53.3c-5.3,20.6-24.2,35.1-45.6,35c-12.5-2.8-25.5-6.1-39-10.1C86.8,214.6,57.6,203.1,29.6,189.2z"/>
<path class="st5" d="M59.2,78c4-2.9,8.4-5.3,13-7.1c2.7-1,5.5-1.9,8.3-2.6c5.8-1.4,12.2-2.2,21.4-2.1c10.5,0.1,18.4,1.2,25.3,2.3
	c11.2,1.7,19.5,3.7,28,5.8c9.8,2.4,15.5,3.8,23.3,6.6c6.8,2.4,15.5,5.5,25.9,11.5c9.4,5.4,18.1,12,25.8,19.7
	c4.7,4.8,10,10.3,14.7,19c3.9,7.3,6.6,15.3,7.8,23.5l0.7,7.1c8.7,0.8,16.8,4.7,23,10.8c-7-5.6-16.2-7.7-25-5.7
	c-2.4,0.6-4.5,1.8-6.1,3.7c-2.9,3.3-5.3,6.9-7.2,10.8c-3.9,8-4.5,15.4-4.8,18.7c-0.8,7.1-0.5,14.3,0.8,21.4
	c0.7,2.8,2.5,8.4,7.7,11.6c2.5,1.5,4.9,2,7.9,2.6c4.1,0.8,8.3,0.9,12.4,0.5c-2.9,0.5-5.6,0.9-7.8,1s-4,0.3-5.3,0.3
	c-2.9,0.1-5.5,0-7.7-0.2c-4.7-0.5-9.1-2.5-12.5-5.7c-2.7-2.6-4.7-5.8-5.8-9.3c-3-17.2-0.3-35,7.7-50.6c3.5-5.7,9.3-9.7,16-10.7
	c-0.1-11.1-3.6-22-10-31.1c-13.3-17.9-27.3-27.8-36.3-33.1c-12-7-24.6-11.4-34.2-14.7c-9.1-3.1-16.8-5.3-22.4-6.7
	c-9.6-2.1-19.2-3.5-29-4.3c-12.3-1-21.7-1.8-33.6,0.3C73.7,72.7,66.3,74.9,59.2,78z"/>
<path class="st7" d="M257.9,236.3L251,236c-3.1-0.2-6.2-1.1-8.8-2.7c-2.3-1.5-4.3-3.5-5.9-5.8c-3.2-4.8-3.3-9.6-3.4-18.1
	c-0.1-4.5,0.2-8.9,0.9-13.4c0.6-4.2,1.7-8.3,3.3-12.3c2.3-5.4,6-14.5,14.1-17c3.3-1.1,6.7-0.8,8.9-0.6c3.3,0.3,6.5,1.1,9.5,2.4
	c3.3,1.2,6.2,3.3,8.5,6.1c2,2.6,4.7,7.5,1.9,27.7c-2.5,17.7-3.9,26.6-11.1,31.2C265.1,235.9,260.8,236.3,257.9,236.3z"/>
<circle class="st5" cx="245.4" cy="205.9" r="2.2"/>
<circle class="st5" cx="244.5" cy="214.8" r="2.2"/>
<path class="st5" d="M267.3,225.7l-4.7-0.2c-2.2-0.1-4.2-0.7-6.1-1.8c-1.6-1-3-2.2-4.1-3.8c-2.2-3.1-2.3-6.2-2.5-11.6
	c-0.1-2.8,0.1-5.7,0.5-8.5c0.4-2.7,1.1-5.3,2.2-7.8c1.5-3.4,4.1-9.2,9.7-10.8c2.3-0.7,4.6-0.5,6.1-0.3c2.3,0.2,4.5,0.7,6.6,1.6
	c2.3,0.8,4.3,2.1,5.9,3.9c1.4,1.6,3.3,4.8,1.5,17.7c-1.6,11.3-2.5,16.9-7.4,19.8C272.6,225.2,270,225.8,267.3,225.7z"/>
<path class="st0" d="M271.1,224.8l-4.1-0.2c-1.9-0.1-3.7-0.7-5.2-1.6c-1.4-0.9-2.6-2-3.5-3.4c-1.9-2.8-2.3-5.7-2.1-10.7
	c0.1-2.1,0.3-4.2,0.6-6.3c0.7-4.4,1.2-7.3,2.9-10.7c1.4-2.8,3.4-6.8,7.4-8.1c1.7-0.5,3.5-0.6,5.3-0.3c2,0.2,3.9,0.6,5.7,1.4
	c1.4,0.5,2.8,2.1,4.4,4.1c1.2,1.5,2.9,4.1,1.8,15.8c-1,10.4-2.8,15.4-7.1,18.1C274.9,224.3,272.9,224.8,271.1,224.8z"/>
<ellipse transform="matrix(0.179 -0.9839 0.9839 0.179 21.9972 435.4297)" class="st5" cx="271.9" cy="204.5" rx="6" ry="4"/>
<path class="st2" d="M260,187.7l7.4,7c2.6-3,7-3.3,10-0.8c0.8,0.7,1.5,1.6,1.9,2.6c0.3,0.7,0.6,1.4,0.7,2.1c0.3,2.1,0.3,4.2,0.1,6.4
	c-0.2,2.1-0.5,4.2-1.8,6.6c-0.9,1.6-2.1,3-3.5,4.1c-0.5,0.4-1,0.6-1.6,0.6H270l-0.6,7.7"/>
<g id="BORDE_CARA">
	<path class="st7" d="M39,93.5l-2.8,4c-0.9,1.3-0.6,3,0.7,3.9c0,0,0,0,0,0c3.1,2.1,7,4.5,11.7,7.1c6.7,3.6,13.7,6.7,20.8,9.2
		c24.5,8.9,42.8,14.1,42.8,14.1c25.1,7,44.8,12.5,60.2,16.7c18.8,9.7,27.8,31.7,21.3,51.5c-6.7,20.3-28.1,32.7-49.4,28.3
		c-30.1-6.7-59.4-16.7-87.3-29.7c-10.9-5.1-21.1-10.5-30.6-15.9l-2,2.1c-0.1,0.1,3.3,6.5,5.6,10.3c0.3,0.6,0.9,1,1.5,1.3
		c20.4,10.1,41.5,18.9,63.1,26.2c17,5.8,33.1,10.3,48.1,13.8c24.9,6.1,50.4-6.9,59.9-29.6c10.1-24.3-0.8-53.4-25.4-65.5
		c-26.9-7-55.6-15.8-85.8-26.8C72.9,107.7,55.4,100.7,39,93.5z"/>
	<g id="led">
		<path class="st8" d="M138.9,128.5l3-7.5c0.6-1.5,2.3-2.3,3.8-1.8l0,0c1.5,0.7,2.2,2.5,1.5,4l-3,7.5"/>
		<path class="st8" d="M148.8,131.7l3.1-7.5c0.6-1.5,2.3-2.4,3.8-1.8l0,0c1.5,0.7,2.2,2.5,1.5,4l-3.1,7.5"/>
		<path class="st8" d="M159,135.1l3-7.5c0.6-1.5,2.3-2.4,3.8-1.8l0,0c1.5,0.7,2.2,2.5,1.5,4l-3,7.5"/>
	</g>
	<path class="st2" d="M31.1,196c20.9,11.1,42.6,20.6,65,28.3c16.5,5.7,33.3,10.4,50.4,14.1c24.5,3.8,48.4-9.7,57.4-31.9
		c9.7-23.9-0.1-52.3-23.4-65.5c-23.4-5.6-48.8-12.7-75.6-22c-23.8-8.3-45.6-17.1-65.4-26"/>
</g>
<path class="st7" d="M76.1,176.6l7.8,3c2,0.8,3,3,2.2,5l0,0c-0.8,2-3,3-5,2.2l-7.8-3c-2-0.8-3-3-2.2-5l0,0
	C71.9,176.9,74.1,175.9,76.1,176.6z"/>
<g id="detalles">
	<circle class="st5" cx="69.3" cy="89.6" r="2.2"/>
	<circle class="st5" cx="63.9" cy="97.2" r="2.2"/>
	<path class="st3" d="M68.2,105.2c6.7-16.9,21.5-29.3,39.4-33"/>
	<path class="st3" d="M77.5,108.8c3.9-7.8,9.4-14.9,16-20.6c0.3-0.2,0.3-0.7,0.1-0.9c-0.1-0.1-0.2-0.1-0.3-0.2l-9.4-3.5"/>
	<path class="st3" d="M222.2,115.1c-6.3,0.1-12.5,1-18.6,2.7c-0.1,0.3-0.7,0.9-0.3,1.2c7.8,5.9,14.1,13.6,18.3,22.5
		c0.4,0.8,1.1,1.2,2,1.1l17.3-1.3"/>
	<path class="st3" d="M175.5,234.9c1.5,1.5,3.1,3.2,4.8,5.1c1,1.2,1.9,2.3,2.8,3.5c0.4,0.5,1,0.6,1.6,0.4c5.9-2.8,11.2-6.5,15.9-11
		c0.5-0.5,0.5-1.3,0-1.8c0,0,0,0-0.1-0.1c-1.2-1-2.2-2.2-3.2-3.4c-1.3-1.7-2.5-3.6-3.4-5.6"/>
	<path class="st3" d="M208.6,246.7c-4.4-3-8.2-6.6-11.4-10.8"/>
</g>
<line class="st9" x1="42.9" y1="137.2" x2="51.6" y2="155.6"/>
<polyline class="st9" points="37.7,149.5 47.7,145.8 57.4,143 "/>
<line class="st9" x1="127.4" y1="166.5" x2="136.1" y2="184.8"/>
<polyline class="st9" points="122.2,178.8 132.2,175.1 141.9,172.3 "/>
</svg>
